<?xml version="1.0" encoding="UTF-8"?>
<svg xmlns="http://www.w3.org/2000/svg" viewBox="100 250 952 148">
  <path fill="#fff" d="M135.867 286.605c-3.512 0-6.11.13-6.11.13v36.55s1.43.387 6.891.387c17.43 0 18.211-12.223 18.211-19.379 0-15.863-10.925-17.688-18.992-17.688m3.121 47.344c-4.941 0-9.23-.652-9.23-.652 0 26.012.648 28.484 3.512 33.555l1.3 2.343s-4.035-.261-14.05-.261c-9.75 0-13.786.261-13.786.261l1.172-2.21c2.602-4.813 3.25-5.856 3.25-44.872 0-37.847-.52-38.367-3.25-43.57l-1.172-2.211s4.16.262 10.926.262c5.594 0 14.57-.39 18.602-.39 13.914 0 38.496.91 38.496 27.831 0 25.75-20.29 29.914-35.77 29.914m72.235-30.957c-8.196 0-14.438 4.426-14.57 23.02l27.835-2.598c0-9.625-.781-20.422-13.265-20.422m-14.57 31.086c0 13.004 5.593 24.582 21.331 24.582 17.946 0 22.371-8.453 22.371-8.453 0 9.492-7.152 20.414-28.226 20.414-17.035 0-34.59-9.098-34.59-38.234 0-26.403 13.781-39.145 33.813-39.145 30.043 0 31.734 24.84 31.734 39.535v1.301Zm93.288.649s-2.21-.52-8.453-.52c-5.855 0-16.386.39-16.386 12.746 0 8.715 5.332 12.485 12.097 12.485 10.145 0 12.742-5.981 12.742-5.981Zm.262 35.375.52-15.477c-3.254 14.05-13.524 15.871-21.461 15.871-18.207 0-22.762-12.488-22.762-22.113 0-22.5 19.25-23.668 30.7-23.668 7.41 0 12.613.777 12.613.777v-4.55c0-4.68 0-9.106-2.47-12.098-2.085-2.598-6.116-4.418-13.398-4.418-4.941 0-14.437 1.039-20.027 9.101 0 0 .258-3.25.258-8.324 0-5.332-.39-8.191-.39-8.191s7.542-3.77 24.839-3.77c15.352 0 21.723 3.899 24.844 7.93 4.422 5.465 4.55 12.617 4.55 21.07 0 5.723-.261 11.317-.261 23.93 0 9.496.914 14.18 3.125 18.469l1.168 2.21Zm55.918.519c-22.11 0-33.031-14.953-33.031-37.062 0-18.211 7.41-40.192 35.762-40.192 15.476 0 21.46 5.074 21.46 5.074s-.257 2.864-.257 8.715c0 6.114.257 11.574.257 11.574-7.023-11.832-11.703-14.175-19.246-14.175-11.445 0-18.468 8.324-18.468 27.312 0 14.176 4.55 26.531 19.898 26.531 14.305 0 19.117-8.453 19.117-8.453 0 9.364-6.761 20.676-25.492 20.676m62.051-67.629c-8.195 0-14.442 4.426-14.57 23.02l27.836-2.598c0-9.625-.782-20.422-13.266-20.422m-14.57 31.086c0 13.004 5.593 24.582 21.332 24.582 17.945 0 22.37-8.453 22.37-8.453 0 9.492-7.152 20.414-28.226 20.414-17.035 0-34.594-9.098-34.594-38.234 0-26.403 13.786-39.145 33.817-39.145 30.043 0 31.734 24.84 31.734 39.535v1.301Zm145.273 36.024.52-17.426c-2.993 13.918-12.227 17.949-22.372 17.949-10.144 0-16.515-3.383-19.77-9.496-2.987-5.461-3.51-11.574-3.51-26.793v-5.2c0-23.284-.782-26.011-2.99-29.917l-1.171-2.207 23.281-3.25s-.652 11.965-.652 27.57v8.453c0 14.828.39 20.29 2.344 23.54 1.558 2.472 4.16 5.206 10.793 5.206 11.445 0 13.265-7.023 13.265-7.023v-22.371c0-23.285-.648-26.012-2.86-29.918l-1.171-2.207 23.148-3.25s-.644 14.304-.644 27.57v13.266c0 22.5 1.168 26.144 3.25 29.914l1.168 2.21Zm42.316-1.168c-9.757 0-13.656.261-13.656.261l1.172-2.21c2.34-4.294 3.25-6.505 3.25-33.169v-30.043c0-23.28-.91-27.05-3.25-31.605l-1.172-2.207 23.281-3.254s-.394 13.656-.394 26.273v40.836c0 26.141.785 28.614 3.254 33.168l1.172 2.211s-3.903-.261-13.657-.261m62.946 1.039c-16.13 0-23.934-3.899-23.934-3.899s.262-3.125.262-9.367c0-6.89-.262-11.574-.262-11.574 4.945 7.152 10.797 13.137 23.024 13.137 8.324 0 17.035-1.692 17.035-11.575 0-7.156-4.293-10.02-10.274-13.53l-11.054-6.63c-9.625-5.594-18.602-12.226-18.602-26.14 0-15.352 10.148-24.844 31.738-24.844 14.567 0 22.367 3.773 22.367 3.773s-.257 3.121-.257 9.625c0 6.762.258 10.922.258 10.922-5.333-7.8-11.317-12.746-21.59-12.746-7.153 0-14.953 1.563-14.953 10.535 0 6.766 4.68 9.363 11.835 13.527l9.23 5.461c10.927 6.375 18.99 12.356 18.99 27.055 0 20.16-14.563 26.27-33.813 26.27m71.941.648c-22.11 0-33.035-14.953-33.035-37.062 0-18.211 7.414-40.192 35.762-40.192 15.48 0 21.46 5.074 21.46 5.074s-.257 2.864-.257 8.715c0 6.114.258 11.574.258 11.574-7.024-11.832-11.703-14.175-19.246-14.175-11.446 0-18.47 8.324-18.47 27.312 0 14.176 4.552 26.531 19.9 26.531 14.308 0 19.116-8.453 19.116-8.453 0 9.364-6.761 20.676-25.488 20.676m42.395-85.316c-6.5 0-11.446-2.207-11.446-8.582 0-6.895 4.684-9.102 11.446-9.102 6.375 0 11.445 2.207 11.445 8.582 0 6.895-4.809 9.102-11.445 9.102m.132 83.629c-9.757 0-13.785.261-13.785.261l1.168-2.21c2.34-4.294 3.254-6.376 3.254-33.169v-4.68c0-22.5-1.172-26.144-3.254-29.913l-1.168-2.211 24.059-3.25s-1.172 7.281-1.172 35.242v4.812c0 24.063.523 27.965 3.254 33.168l1.168 2.211s-3.899-.261-13.524-.261m51.825-65.942c-8.192 0-14.438 4.426-14.567 23.02l27.836-2.598c0-9.625-.785-20.422-13.27-20.422m-14.566 31.086c0 13.004 5.594 24.582 21.332 24.582 17.946 0 22.367-8.453 22.367-8.453 0 9.492-7.152 20.414-28.222 20.414-17.04 0-34.594-9.098-34.594-38.234 0-26.403 13.785-39.145 33.817-39.145 30.039 0 31.73 24.84 31.73 39.535v1.301Zm110.235 34.856c-9.754 0-13.657.261-13.657.261l1.172-2.21c2.082-3.774 3.254-4.684 3.254-33.036 0-14.828-.523-20.289-2.472-23.539-1.434-2.473-4.165-5.207-10.665-5.207-11.445 0-13.398 7.027-13.398 7.027v21.586c0 28.223 1.172 29.395 3.25 33.168l1.172 2.211s-3.899-.261-13.524-.261c-9.757 0-13.789.261-13.789.261l1.172-2.21c2.078-3.774 3.254-4.813 3.254-33.169v-4.68c0-22.5-1.176-26.144-3.254-29.917l-1.172-2.207 22.762-3.25-.652 17.297c2.992-13.918 12.226-17.817 22.37-17.817 10.016 0 16.516 3.38 19.77 9.492 2.993 5.461 3.641 11.707 3.641 26.922v4.16c0 28.356 1.172 29.395 3.25 33.168l1.172 2.211s-4.031-.261-13.656-.261m51.097 1.687c-22.11 0-33.035-14.953-33.035-37.062 0-18.211 7.414-40.192 35.766-40.192 15.476 0 21.457 5.074 21.457 5.074s-.258 2.864-.258 8.715c0 6.114.258 11.574.258 11.574-7.02-11.832-11.703-14.175-19.246-14.175-11.446 0-18.469 8.324-18.469 27.312 0 14.176 4.55 26.531 19.898 26.531 14.309 0 19.118-8.453 19.118-8.453 0 9.364-6.762 20.676-25.489 20.676m62.047-67.629c-8.191 0-14.437 4.426-14.566 23.02l27.832-2.598c0-9.625-.781-20.422-13.266-20.422m-14.566 31.086c0 13.004 5.59 24.582 21.332 24.582 17.945 0 22.367-8.453 22.367-8.453 0 9.492-7.152 20.414-28.223 20.414-17.039 0-34.593-9.098-34.593-38.234 0-26.403 13.785-39.145 33.816-39.145 30.04 0 31.73 24.84 31.73 39.535v1.301Zm-514.184-66.332s-3.25-1.039-11.445-1.039c-22.11 0-26.922 11.055-27.832 24.063l-.13 1.949c-.081 1.496-.26 2.957-.675 4.422h-5.781l-2.113 10.535h8.699v26.144c0 26.79-.781 28.871-3.25 33.164l-1.172 2.211s4.031-.261 13.785-.261c10.016 0 13.918.261 13.918.261l-1.3-2.34c-2.86-5.074-3.512-8.457-3.512-33.558v-25.621h3.644c9.625 0 12.356 1.43 12.356 1.43s-.133-1.95-.133-6.633c0-4.813.133-6.762.133-6.762s-2.473 1.43-12.356 1.43h-3.906v-5.07c0-5.985.262-8.848 2.082-11.45 1.433-2.078 4.031-3.508 8.195-3.508 4.813 0 8.453 3.38 10.793 6.5 0 0-.258-4.16-.258-8.453 0-3.773.258-7.414.258-7.414"/>
</svg>
