<?xml version="1.0" encoding="UTF-8" standalone="no"?>
<svg xmlns="http://www.w3.org/2000/svg" viewBox="150 100 852 448">
  <path fill="#fff" d="M207.59 172.387c-6.106 0-10.63.222-10.63.222v63.54s2.49.68 11.985.68c30.301 0 31.657-21.259 31.657-33.692 0-27.586-18.997-30.75-33.012-30.75m5.422 82.304c-8.59 0-16.051-1.132-16.051-1.132 0 45.222 1.129 49.52 6.105 58.336l2.262 4.07s-7.012-.453-24.422-.453c-16.957 0-23.965.453-23.965.453l2.032-3.844c4.523-8.367 5.656-10.176 5.656-78.008 0-65.797-.906-66.703-5.656-75.746l-2.032-3.844s7.235.454 18.993.454c9.722 0 25.324-.68 32.332-.68 24.195 0 66.93 1.582 66.93 48.387 0 44.77-35.274 52.007-62.184 52.007m123.722-53.816c-14.242 0-25.097 7.688-25.324 40.02l48.387-4.52c0-16.734-1.356-35.5-23.063-35.5m-25.324 54.04c0 22.608 9.723 42.733 37.082 42.733 31.203 0 38.89-14.695 38.89-14.695 0 16.504-12.437 35.5-49.066 35.5-29.617 0-60.144-15.828-60.144-66.476 0-45.899 23.969-68.059 58.789-68.059 52.23 0 55.172 43.184 55.172 68.738v2.258zm160.328 1.128s-3.843-.902-14.695-.902c-10.176 0-28.492.68-28.492 22.16 0 15.148 9.27 21.707 21.027 21.707 17.637 0 22.16-10.399 22.16-10.399zm.453 61.508.903-26.91c-5.653 24.421-23.516 27.586-37.305 27.586-31.656 0-39.57-21.707-39.57-38.438 0-39.121 33.465-41.152 53.36-41.152 12.89 0 21.933 1.355 21.933 1.355v-7.914c0-8.137 0-15.824-4.297-21.027-3.617-4.524-10.625-7.688-23.29-7.688-8.59 0-25.097 1.805-34.82 15.828 0 0 .454-5.652.454-14.472 0-9.27-.68-14.246-.68-14.246s13.117-6.555 43.187-6.555c26.684 0 37.762 6.781 43.188 13.789 7.687 9.5 7.914 21.934 7.914 36.633 0 9.95-.453 19.672-.453 41.605 0 16.504 1.586 24.645 5.43 32.106l2.03 3.844zm97.223.902c-38.441 0-57.434-26.004-57.434-64.441 0-31.657 12.887-69.867 62.18-69.867 26.906 0 37.309 8.816 37.309 8.816s-.453 4.973-.453 15.148c0 10.63.453 20.125.453 20.125-12.211-20.574-20.348-24.644-33.465-24.644-19.899 0-32.106 14.469-32.106 47.48 0 24.649 7.915 46.13 34.594 46.13 24.871 0 33.238-14.7 33.238-14.7 0 16.281-11.757 35.953-44.316 35.953m106.129-117.578c-14.242 0-25.098 7.688-25.32 40.02l48.382-4.52c0-16.734-1.355-35.5-23.062-35.5m-25.32 54.04c0 22.608 9.722 42.733 37.078 42.733 31.207 0 38.89-14.695 38.89-14.695 0 16.504-12.433 35.5-49.066 35.5-29.617 0-60.14-15.828-60.14-66.476 0-45.899 23.964-68.059 58.785-68.059 52.23 0 55.171 43.184 55.171 68.738v2.258zm252.554 62.635.903-30.3c-5.2 24.191-21.254 31.203-38.89 31.203-17.638 0-28.72-5.879-34.368-16.508-5.203-9.492-6.11-20.12-6.11-46.578v-9.043c0-40.472-1.351-45.222-5.195-52.008l-2.039-3.843 40.473-5.649s-1.13 20.801-1.13 47.934v14.695c0 25.777.68 35.274 4.071 40.926 2.715 4.297 7.235 9.047 18.766 9.047 19.898 0 23.066-12.211 23.066-12.211v-38.89c0-40.473-1.133-45.223-4.976-52.009l-2.035-3.843 40.25-5.649s-1.133 24.871-1.133 47.934v23.062c0 39.118 2.035 45.45 5.652 52.004l2.04 3.844zm71.739-2.038c-16.961 0-23.743.453-23.743.453l2.036-3.844c4.07-7.46 5.652-11.305 5.652-57.656v-52.23c0-40.477-1.582-47.032-5.652-54.95l-2.036-3.844 40.473-5.648s-.676 23.738-.676 45.672v71c0 45.45 1.356 49.742 5.653 57.656l2.03 3.844s-6.78-.453-23.737-.453M195.605 510.133c-28.039 0-41.605-6.781-41.605-6.781s.453-5.426.453-16.282c0-11.984-.453-20.12-.453-20.12 8.59 12.433 18.766 22.835 40.023 22.835 14.47 0 29.618-2.937 29.618-20.125 0-12.433-7.461-17.41-17.864-23.512l-19.218-11.535c-16.73-9.722-32.332-21.254-32.332-45.449 0-26.676 17.636-43.184 55.171-43.184 25.32 0 38.891 6.555 38.891 6.555s-.453 5.426-.453 16.735c0 11.757.453 18.992.453 18.992-9.27-13.567-19.672-22.157-37.535-22.157-12.438 0-26.004 2.711-26.004 18.313 0 11.758 8.14 16.277 20.578 23.516l16.055 9.496c18.992 11.082 33.012 21.48 33.012 47.03 0 35.044-25.325 45.673-58.79 45.673m123.293 1.133c-38.441 0-57.433-26.004-57.433-64.442 0-31.656 12.887-69.867 62.18-69.867 26.906 0 37.308 8.816 37.308 8.816s-.453 4.973-.453 15.149c0 10.629.453 20.125.453 20.125-12.21-20.574-20.348-24.645-33.465-24.645-19.898 0-32.11 14.47-32.11 47.48 0 24.65 7.915 46.13 34.599 46.13 24.87 0 33.238-14.696 33.238-14.696 0 16.278-11.758 35.95-44.317 35.95m73.704-148.328c-11.305 0-19.899-3.844-19.899-14.922 0-11.985 8.145-15.832 19.899-15.832 11.082 0 19.902 3.847 19.902 14.925 0 11.985-8.371 15.829-19.902 15.829m.226 145.39c-16.957 0-23.969.45-23.969.45l2.04-3.844c4.066-7.461 5.652-11.079 5.652-57.657v-8.14c0-39.117-2.035-45.45-5.653-52.008l-2.039-3.844 41.832-5.652s-2.035 12.664-2.035 61.277v8.367c0 41.832.906 48.614 5.653 57.657l2.039 3.843s-6.786-.449-23.52-.449m88.25-114.64c-14.246 0-25.101 7.687-25.324 40.019l48.383-4.52c0-16.734-1.356-35.5-23.059-35.5m-25.324 54.04c0 22.609 9.723 42.734 37.078 42.734 31.207 0 38.895-14.695 38.895-14.695 0 16.504-12.438 35.5-49.07 35.5-29.618 0-60.141-15.828-60.141-66.477 0-45.898 23.964-68.059 58.785-68.059 52.23 0 55.172 43.188 55.172 68.739v2.258zm189.836 60.601c-16.961 0-23.742.45-23.742.45l2.035-3.844c3.617-6.555 5.648-8.137 5.648-57.43 0-25.777-.902-35.277-4.293-40.926-2.488-4.297-7.238-9.047-18.543-9.047-19.894 0-23.289 12.211-23.289 12.211v37.535c0 49.067 2.035 51.102 5.657 57.657l2.035 3.843s-6.782-.449-23.516-.449c-16.96 0-23.969.45-23.969.45l2.035-3.844c3.618-6.555 5.653-8.364 5.653-57.657v-8.14c0-39.117-2.035-45.45-5.653-52.008l-2.035-3.844 39.57-5.648-1.132 30.07c5.203-24.195 21.258-30.977 38.89-30.977 17.414 0 28.715 5.88 34.368 16.504 5.203 9.5 6.332 20.352 6.332 46.809v7.234c0 49.293 2.039 51.102 5.652 57.657l2.035 3.843s-7.008-.449-23.738-.449m86.976 2.938c-38.437 0-57.43-26.004-57.43-64.442 0-31.656 12.887-69.867 62.18-69.867 26.907 0 37.309 8.816 37.309 8.816s-.453 4.973-.453 15.149c0 10.629.453 20.125.453 20.125-12.21-20.574-20.352-24.645-33.465-24.645-19.902 0-32.11 14.47-32.11 47.48 0 24.65 7.915 46.13 34.598 46.13 24.868 0 33.235-14.696 33.235-14.696 0 16.278-11.754 35.95-44.317 35.95M838.7 393.688c-14.247 0-25.102 7.687-25.325 40.019l48.383-4.52c0-16.734-1.352-35.5-23.059-35.5m-25.324 54.04c0 22.609 9.723 42.734 37.082 42.734 31.203 0 38.89-14.695 38.89-14.695 0 16.504-12.437 35.5-49.066 35.5-29.62 0-60.144-15.829-60.144-66.477 0-45.898 23.965-68.059 58.789-68.059 52.23 0 55.168 43.188 55.168 68.739v2.258zm5.289-308.129s-5.652-1.805-19.898-1.805c-38.438 0-46.805 19.219-48.383 41.828l-.23 3.39c-.145 2.606-.458 5.141-1.176 7.688h-10.051l-3.676 18.317h15.133v45.449c0 46.578-1.36 50.195-5.656 57.656l-2.036 3.844s7.008-.453 23.97-.453c17.41 0 24.19.453 24.19.453l-2.257-4.07c-4.977-8.817-6.11-14.696-6.11-58.336v-44.543h6.332c16.735 0 21.48 2.488 21.48 2.488s-.226-3.395-.226-11.531c0-8.368.227-11.758.227-11.758s-4.293 2.484-21.48 2.484h-6.782v-8.816c0-10.403.45-15.375 3.617-19.899 2.489-3.617 7.008-6.105 14.243-6.105 8.37 0 14.699 5.879 18.77 11.305 0 0-.454-7.235-.454-14.696 0-6.558.453-12.89.453-12.89"/>
</svg>
